<svg xmlns="http://www.w3.org/2000/svg" version="1.1" xmlns:xlink="http://www.w3.org/1999/xlink" xmlns:svgjs="http://svgjs.dev/svgjs" width="1500" height="1500" viewBox="0 0 1500 1500"><rect width="1500" height="1500" fill="#ffffff"></rect><g transform="matrix(0.6666666666666666,0,0,0.6666666666666666,249.39393939393938,438.5856950067477)"><svg viewBox="0 0 396 247" data-background-color="#ffffff" preserveAspectRatio="xMidYMid meet" height="935" width="1500" xmlns="http://www.w3.org/2000/svg" xmlns:xlink="http://www.w3.org/1999/xlink"><g id="tight-bounds" transform="matrix(1,0,0,1,0.2400000000000091,-0.09999999999999432)"><svg viewBox="0 0 395.52 247.2" height="247.2" width="395.52"><g><svg></svg></g><g><svg viewBox="0 0 395.52 247.2" height="247.2" width="395.52"><mask id="a131a4d0-3c9d-48c1-be7b-50aaec29f153"><rect width="640" height="400" fill="white"></rect><g transform="matrix(1,0,0,1,39.55199999999999,101.56135498960163)"><svg viewBox="0 0 316.416 44.077290020796724" height="44.077290020796724" width="316.416"><g><svg viewBox="0 0 316.416 44.077290020796724" height="44.077290020796724" width="316.416"><g><svg viewBox="0 0 316.416 44.077290020796724" height="44.077290020796724" width="316.416"><g><svg viewBox="0 0 316.416 44.077290020796724" height="44.077290020796724" width="316.416"><g id="SvgjsG1188"><svg viewBox="0 0 316.416 44.077290020796724" height="44.077290020796724" width="316.416" id="SvgjsSvg1187"><g><svg viewBox="0 0 316.416 25.269655617483135" height="25.269655617483135" width="316.416"><g transform="matrix(1,0,0,1,0,0)"><svg width="316.416" viewBox="-0.2999999999999998 -44.45 682.74 55.45" height="25.269655617483135" data-palette-color="#1c4b82"><path d="M34.65-39.95L34.65-39.95Q36.25-39.95 38.15-39.2L38.15-39.2Q39.9-38.5 39.9-36.55L39.9-36.55 39.9-2.1Q39.9 0.3 36.95 0.3L36.95 0.3Q34 0.3 34-2.1L34-2.1 34-27.8 32.55-27.95 30.55-21.45 24.55-1.45Q24 0.3 21.85 0.25L21.85 0.25Q20.9 0.2 20.2-0.25 19.5-0.7 19.25-1.55L19.25-1.55 15.65-13.2Q14.55-16.65 13.45-20.23 12.35-23.8 11.05-28.15L11.05-28.15 9.6-27.95 9.6-2.1Q9.6 0.3 6.65 0.3L6.65 0.3Q3.7 0.3 3.7-2.1L3.7-2.1 3.7-36.55Q3.7-38.45 5.45-39.2L5.45-39.2Q7.3-39.95 9-39.9L9-39.9Q9.75-39.9 10.55-39.7 11.35-39.5 12.05-39.13 12.75-38.75 13.3-38.18 13.85-37.6 14.15-36.85L14.15-36.85 22-10.1Q22.85-13.05 23.8-16.5 24.75-19.95 25.75-23.5 26.75-27.05 27.73-30.53 28.7-34 29.55-37L29.55-37Q29.85-37.7 30.4-38.25 30.95-38.8 31.65-39.18 32.35-39.55 33.13-39.75 33.9-39.95 34.65-39.95ZM52-22.15L52-8Q52-6.8 52.77-5.75 53.55-4.7 55.4-4.7L55.4-4.7 61.65-4.7Q63.5-4.7 64.27-5.63 65.05-6.55 65.05-7.75L65.05-7.75 65.05-8.3Q65.05-10.65 67.8-10.65L67.8-10.65Q70.55-10.65 70.55-8.3L70.55-8.3 70.55-7.7Q70.55-5.6 69.87-4.25 69.2-2.9 67.85-1.9L67.85-1.9Q65.2 0 62.55 0L62.55 0 54.15 0Q51.5 0 49-1.9L49-1.9Q47.8-2.9 47.15-4.42 46.5-5.95 46.5-7.95L46.5-7.95 46.5-22.2Q46.5-26.25 49-28.2L49-28.2Q50.25-29.1 51.57-29.63 52.9-30.15 54.15-30.15L54.15-30.15 62.55-30.15Q63.75-30.15 65.2-29.68 66.65-29.2 67.9-28.4L67.9-28.4Q69.1-27.55 69.82-26.05 70.55-24.55 70.55-22.5L70.55-22.5 70.55-15.75Q70.55-14.6 69.87-13.7 69.2-12.8 67.4-12.8L67.4-12.8 56.6-12.8Q54.8-12.8 54.7-15.15L54.7-15.15Q54.7-17.5 56.6-17.5L56.6-17.5 65.1-17.5 65.05-22.15Q65.05-23.4 64.27-24.43 63.5-25.45 61.65-25.45L61.65-25.45 55.4-25.45Q53.55-25.45 52.77-24.43 52-23.4 52-22.15L52-22.15ZM95.45-1.75L95.45-25.4 85.8-25.4Q83.75-25.4 83.1-24.2L83.1-24.2Q82.4-23.15 82.4-21.75L82.4-21.75 82.4-7.35Q82.4-6.05 83.2-5.38 84-4.7 85.85-4.7L85.85-4.7 91-4.7Q92.8-4.7 92.8-2.35L92.8-2.35Q92.8-1.35 92.37-0.68 91.95 0 91 0L91 0 84.95 0Q81.8 0 79.35-1.6L79.35-1.6Q76.9-3.1 76.9-7.3L76.9-7.3 76.9-22.2Q76.9-24.25 77.55-25.75 78.2-27.25 79.6-28.2L79.6-28.2Q82.25-30.1 84.9-30.1L84.9-30.1 95.45-30.1 95.45-37.6Q95.45-40 98.2-40L98.2-40Q100.95-40 100.95-37.6L100.95-37.6 100.95-2.1Q100.95 0.3 98.2 0.3L98.2 0.3Q97.15 0.3 96.3-0.08 95.45-0.45 95.45-1.75L95.45-1.75ZM113.19-27.9L113.19-2.1Q113.19 0.3 110.44 0.3L110.44 0.3Q107.64 0.3 107.64-2.1L107.64-2.1 107.64-27.9Q107.64-30.3 110.44-30.3L110.44-30.3Q113.19-30.3 113.19-27.9L113.19-27.9ZM114.24-36.6L114.24-36.6Q114.24-35 113.14-33.9 112.04-32.8 110.44-32.8L110.44-32.8Q108.84-32.8 107.72-33.9 106.59-35 106.59-36.6L106.59-36.6Q106.59-38.25 107.72-39.35 108.84-40.45 110.44-40.45L110.44-40.45Q112.04-40.45 113.14-39.35 114.24-38.25 114.24-36.6ZM144.19-10.3L144.19-7.95Q144.19-3.85 141.49-1.9L141.49-1.9Q138.84 0 136.19 0L136.19 0 127.79 0Q125.14 0 122.64-1.9L122.64-1.9Q121.44-2.9 120.79-4.42 120.14-5.95 120.14-7.95L120.14-7.95 120.14-22.2Q120.14-26.25 122.64-28.2L122.64-28.2Q123.89-29.1 125.22-29.63 126.54-30.15 127.79-30.15L127.79-30.15 136.19-30.15Q137.39-30.15 138.84-29.68 140.29-29.2 141.54-28.4L141.54-28.4Q142.74-27.55 143.47-26.05 144.19-24.55 144.19-22.5L144.19-22.5 144.19-20Q144.19-17.6 141.44-17.6L141.44-17.6Q138.69-17.6 138.69-20L138.69-20 138.69-22.15Q138.69-23.4 137.92-24.43 137.14-25.45 135.29-25.45L135.29-25.45 129.04-25.45Q127.19-25.45 126.42-24.43 125.64-23.4 125.64-22.15L125.64-22.15 125.64-8Q125.64-6.8 126.42-5.75 127.19-4.7 129.04-4.7L129.04-4.7 135.29-4.7Q137.14-4.7 137.92-5.75 138.69-6.8 138.69-8L138.69-8 138.69-10.3Q138.69-12.65 141.44-12.65L141.44-12.65Q144.19-12.65 144.19-10.3L144.19-10.3ZM156.09-27.9L156.09-2.1Q156.09 0.3 153.34 0.3L153.34 0.3Q150.54 0.3 150.54-2.1L150.54-2.1 150.54-27.9Q150.54-30.3 153.34-30.3L153.34-30.3Q156.09-30.3 156.09-27.9L156.09-27.9ZM157.14-36.6L157.14-36.6Q157.14-35 156.04-33.9 154.94-32.8 153.34-32.8L153.34-32.8Q151.74-32.8 150.61-33.9 149.49-35 149.49-36.6L149.49-36.6Q149.49-38.25 150.61-39.35 151.74-40.45 153.34-40.45L153.34-40.45Q154.94-40.45 156.04-39.35 157.14-38.25 157.14-36.6ZM168.54-21.75L168.54-2.1Q168.54 0.3 165.79 0.3L165.79 0.3Q163.04 0.3 163.04-2.1L163.04-2.1 163.04-22.2Q163.04-24.25 163.69-25.75 164.34-27.25 165.74-28.2L165.74-28.2Q168.39-30.1 171.04-30.1L171.04-30.1 179.09-30.1Q181.64-30.1 184.39-28.2L184.39-28.2Q187.09-26.3 187.09-22.2L187.09-22.2 187.09-2.1Q187.09 0.3 184.34 0.3L184.34 0.3Q181.59 0.3 181.59-2.1L181.59-2.1 181.59-21.75Q181.59-23.05 180.79-24.25L180.79-24.25 180.84-24.2Q180.19-25.4 178.19-25.4L178.19-25.4 171.94-25.4Q169.89-25.4 169.24-24.2L169.24-24.2Q168.54-23.15 168.54-21.75L168.54-21.75ZM199.03-22.15L199.03-8Q199.03-6.8 199.81-5.75 200.58-4.7 202.43-4.7L202.43-4.7 208.68-4.7Q210.53-4.7 211.31-5.63 212.08-6.55 212.08-7.75L212.08-7.75 212.08-8.3Q212.08-10.65 214.83-10.65L214.83-10.65Q217.58-10.65 217.58-8.3L217.58-8.3 217.58-7.7Q217.58-5.6 216.91-4.25 216.23-2.9 214.88-1.9L214.88-1.9Q212.23 0 209.58 0L209.58 0 201.18 0Q198.53 0 196.03-1.9L196.03-1.9Q194.83-2.9 194.18-4.42 193.53-5.95 193.53-7.95L193.53-7.95 193.53-22.2Q193.53-26.25 196.03-28.2L196.03-28.2Q197.28-29.1 198.61-29.63 199.93-30.15 201.18-30.15L201.18-30.15 209.58-30.15Q210.78-30.15 212.23-29.68 213.68-29.2 214.93-28.4L214.93-28.4Q216.13-27.55 216.86-26.05 217.58-24.55 217.58-22.5L217.58-22.5 217.58-15.75Q217.58-14.6 216.91-13.7 216.23-12.8 214.43-12.8L214.43-12.8 203.63-12.8Q201.83-12.8 201.73-15.15L201.73-15.15Q201.73-17.5 203.63-17.5L203.63-17.5 212.13-17.5 212.08-22.15Q212.08-23.4 211.31-24.43 210.53-25.45 208.68-25.45L208.68-25.45 202.43-25.45Q200.58-25.45 199.81-24.43 199.03-23.4 199.03-22.15L199.03-22.15ZM248.68-22.85L258.33-22.85Q259.63-22.85 261.03-22.3 262.43-21.75 263.73-20.85L263.73-20.85 263.68-20.85Q264.98-19.95 265.68-18.4 266.38-16.85 266.38-14.85L266.38-14.85 266.38-8Q266.38-3.95 263.68-1.95L263.68-1.95Q262.38-1 261-0.48 259.63 0.05 258.33 0.05L258.33 0.05 247.43 0.05Q246.13 0.05 244.75-0.48 243.38-1 242.08-1.95L242.08-1.95Q239.38-3.95 239.38-8L239.38-8 239.38-11.3Q239.38-13.65 242.33-13.65L242.33-13.65Q245.33-13.65 245.33-11.3L245.33-11.3 245.33-8.4Q245.33-7.1 246.08-6.05 246.83-5 248.68-5L248.68-5 257.08-5Q258.93-5 259.68-6.05 260.43-7.1 260.43-8.4L260.43-8.4 260.43-14.45Q260.43-15.7 259.68-16.78 258.93-17.85 257.08-17.85L257.08-17.85 247.43-17.85Q244.83-17.85 242.08-19.75L242.08-19.75Q239.38-21.85 239.38-25.8L239.38-25.8 239.38-31.75Q239.38-33.75 240.08-35.27 240.78-36.8 242.08-37.75L242.08-37.75 242.03-37.75Q243.33-38.6 244.73-39.15 246.13-39.7 247.43-39.7L247.43-39.7 258.33-39.7Q259.63-39.7 261.03-39.15 262.43-38.6 263.73-37.75L263.73-37.75 263.68-37.75Q264.98-36.8 265.68-35.27 266.38-33.75 266.38-31.75L266.38-31.75 266.38-28.8Q266.38-26.45 263.38-26.45L263.38-26.45Q260.43-26.45 260.43-28.8L260.43-28.8 260.43-31.3Q260.43-32.55 259.68-33.6 258.93-34.65 257.08-34.65L257.08-34.65 248.68-34.65Q246.83-34.65 246.08-33.6 245.33-32.55 245.33-31.3L245.33-31.3 245.33-26.2Q245.33-24.9 246.08-23.88 246.83-22.85 248.68-22.85L248.68-22.85ZM297.83-28L297.83-7.95Q297.83-5.95 297.13-4.4 296.43-2.85 295.13-1.9L295.13-1.9 295.18-1.9Q293.93-1.05 292.53-0.53 291.13 0 289.83 0L289.83 0 281.78 0Q280.53 0 279.1-0.53 277.68-1.05 276.43-1.9L276.43-1.9 276.48-1.9Q275.18-2.85 274.48-4.4 273.78-5.95 273.78-7.95L273.78-7.95 273.78-28Q273.78-30.4 276.53-30.4L276.53-30.4Q279.28-30.4 279.28-28L279.28-28 279.28-8.35Q279.28-6.95 279.98-5.9L279.98-5.9Q280.63-4.7 282.68-4.7L282.68-4.7 288.93-4.7Q290.93-4.7 291.58-5.9L291.58-5.9 291.53-5.85Q292.33-7.05 292.33-8.35L292.33-8.35 292.33-28Q292.33-30.4 295.08-30.4L295.08-30.4Q297.83-30.4 297.83-28L297.83-28ZM309.57-25.4L309.52-2.1Q309.52-0.9 308.67-0.3 307.82 0.3 306.82 0.3L306.82 0.3Q304.07 0.3 304.07-2.1L304.07-2.1 304.07-37.6Q304.07-40 306.82-40L306.82-40Q309.57-40 309.57-37.6L309.57-37.6 309.57-30.1 320.12-30.1Q322.67-30.1 325.42-28.2L325.42-28.2Q328.12-26.3 328.12-22.2L328.12-22.2 328.12-7.3Q328.12-3.15 325.67-1.6L325.67-1.6Q323.22 0 320.07 0L320.07 0 314.17 0Q312.37 0 312.27-2.35L312.27-2.35Q312.27-4.7 314.17-4.7L314.17-4.7 319.17-4.7Q321.02-4.7 321.82-5.38 322.62-6.05 322.62-7.35L322.62-7.35 322.62-21.75Q322.62-23.05 321.82-24.25L321.82-24.25 321.87-24.2Q321.22-25.4 319.22-25.4L319.22-25.4 309.57-25.4ZM343.17-17.5L350.52-17.5Q351.77-17.5 353.2-16.93 354.62-16.35 355.87-15.5L355.87-15.5 355.82-15.5Q357.12-14.55 357.82-13.05 358.52-11.55 358.52-9.45L358.52-9.45 358.52-7.95Q358.52-3.85 355.82-1.9L355.82-1.9Q354.52-0.9 353.17-0.45 351.82 0 350.52 0L350.52 0 342.02 0Q340.72 0 339.37-0.45 338.02-0.9 336.72-1.9L336.72-1.9Q334.02-3.8 334.02-7.95L334.02-7.95 334.02-8.55Q334.02-10.7 336.77-10.65L336.77-10.65Q339.57-10.65 339.57-8.55L339.57-8.55 339.57-8Q339.57-6.8 340.32-5.75 341.07-4.7 342.97-4.7L342.97-4.7 349.57-4.7Q351.47-4.7 352.22-5.75 352.97-6.8 352.97-8L352.97-8 352.97-9.4Q352.97-10.05 352.8-10.65 352.62-11.25 352.22-11.73 351.82-12.2 351.17-12.5 350.52-12.8 349.57-12.8L349.57-12.8 342.27-12.8Q339.72-12.8 336.92-14.6L336.92-14.6Q334.27-16.3 334.27-20.45L334.27-20.45 334.27-22.15Q334.27-24.15 334.97-25.68 335.67-27.2 336.97-28.15L336.97-28.15 336.92-28.15Q338.17-29 339.57-29.55 340.97-30.1 342.27-30.1L342.27-30.1 350.27-30.1Q351.57-30.1 352.95-29.55 354.32-29 355.62-28.15L355.62-28.15 355.57-28.15Q356.87-27.2 357.57-25.68 358.27-24.15 358.27-22.15L358.27-22.15 358.27-21.7Q358.27-20.65 357.57-20.18 356.87-19.7 355.52-19.65L355.52-19.65Q352.77-19.6 352.77-21.7L352.77-21.7 352.77-22.1Q352.77-23.35 352-24.38 351.22-25.4 349.37-25.4L349.37-25.4 343.17-25.4Q341.32-25.4 340.55-24.38 339.77-23.35 339.77-22.1L339.77-22.1 339.77-20.9Q339.77-19.6 340.55-18.55 341.32-17.5 343.17-17.5L343.17-17.5ZM375.72-25.4L371.57-25.4 371.57-7.2Q371.57-5.9 372.12-5.2 372.67-4.5 374.47-4.5L374.47-4.5 375.77-4.5Q377.72-4.5 377.62-2.2L377.62-2.2Q377.62 0.15 375.77 0.15L375.77 0.15 374.12 0.15Q372.52 0.15 371.12-0.28 369.72-0.7 368.42-1.5L368.42-1.5 368.42-1.45Q365.97-3.05 365.97-7.15L365.97-7.15 365.97-25.4 364.02-25.4Q362.22-25.4 362.12-27.75L362.12-27.75Q362.12-30.1 364.02-30.1L364.02-30.1 365.97-30.1 365.97-35.45Q365.97-37.85 368.82-37.85L368.82-37.85Q371.57-37.85 371.57-35.45L371.57-35.45 371.57-30.1 375.72-30.1Q377.67-30.1 377.57-27.75L377.57-27.75Q377.57-25.4 375.72-25.4L375.72-25.4ZM387.62-27.9L387.62-2.1Q387.62 0.3 384.87 0.3L384.87 0.3Q382.07 0.3 382.07-2.1L382.07-2.1 382.07-27.9Q382.07-30.3 384.87-30.3L384.87-30.3Q387.62-30.3 387.62-27.9L387.62-27.9ZM388.67-36.6L388.67-36.6Q388.67-35 387.57-33.9 386.47-32.8 384.87-32.8L384.87-32.8Q383.27-32.8 382.14-33.9 381.02-35 381.02-36.6L381.02-36.6Q381.02-38.25 382.14-39.35 383.27-40.45 384.87-40.45L384.87-40.45Q386.47-40.45 387.57-39.35 388.67-38.25 388.67-36.6ZM405.26-25.4L401.11-25.4 401.11-7.2Q401.11-5.9 401.66-5.2 402.21-4.5 404.01-4.5L404.01-4.5 405.31-4.5Q407.26-4.5 407.16-2.2L407.16-2.2Q407.16 0.15 405.31 0.15L405.31 0.15 403.66 0.15Q402.06 0.15 400.66-0.28 399.26-0.7 397.96-1.5L397.96-1.5 397.96-1.45Q395.51-3.05 395.51-7.15L395.51-7.15 395.51-25.4 393.56-25.4Q391.76-25.4 391.66-27.75L391.66-27.75Q391.66-30.1 393.56-30.1L393.56-30.1 395.51-30.1 395.51-35.45Q395.51-37.85 398.36-37.85L398.36-37.85Q401.11-37.85 401.11-35.45L401.11-35.45 401.11-30.1 405.26-30.1Q407.21-30.1 407.11-27.75L407.11-27.75Q407.11-25.4 405.26-25.4L405.26-25.4ZM435.56-28L435.56-7.95Q435.56-5.95 434.86-4.4 434.16-2.85 432.86-1.9L432.86-1.9 432.91-1.9Q431.66-1.05 430.26-0.53 428.86 0 427.56 0L427.56 0 419.51 0Q418.26 0 416.84-0.53 415.41-1.05 414.16-1.9L414.16-1.9 414.21-1.9Q412.91-2.85 412.21-4.4 411.51-5.95 411.51-7.95L411.51-7.95 411.51-28Q411.51-30.4 414.26-30.4L414.26-30.4Q417.01-30.4 417.01-28L417.01-28 417.01-8.35Q417.01-6.95 417.71-5.9L417.71-5.9Q418.36-4.7 420.41-4.7L420.41-4.7 426.66-4.7Q428.66-4.7 429.31-5.9L429.31-5.9 429.26-5.85Q430.06-7.05 430.06-8.35L430.06-8.35 430.06-28Q430.06-30.4 432.81-30.4L432.81-30.4Q435.56-30.4 435.56-28L435.56-28ZM452.51-25.4L448.36-25.4 448.36-7.2Q448.36-5.9 448.91-5.2 449.46-4.5 451.26-4.5L451.26-4.5 452.56-4.5Q454.51-4.5 454.41-2.2L454.41-2.2Q454.41 0.15 452.56 0.15L452.56 0.15 450.91 0.15Q449.31 0.15 447.91-0.28 446.51-0.7 445.21-1.5L445.21-1.5 445.21-1.45Q442.76-3.05 442.76-7.15L442.76-7.15 442.76-25.4 440.81-25.4Q439.01-25.4 438.91-27.75L438.91-27.75Q438.91-30.1 440.81-30.1L440.81-30.1 442.76-30.1 442.76-35.45Q442.76-37.85 445.61-37.85L445.61-37.85Q448.36-37.85 448.36-35.45L448.36-35.45 448.36-30.1 452.51-30.1Q454.46-30.1 454.36-27.75L454.36-27.75Q454.36-25.4 452.51-25.4L452.51-25.4ZM464.26-22.15L464.26-8Q464.26-6.8 465.03-5.75 465.81-4.7 467.66-4.7L467.66-4.7 473.91-4.7Q475.76-4.7 476.53-5.63 477.31-6.55 477.31-7.75L477.31-7.75 477.31-8.3Q477.31-10.65 480.06-10.65L480.06-10.65Q482.81-10.65 482.81-8.3L482.81-8.3 482.81-7.7Q482.81-5.6 482.13-4.25 481.46-2.9 480.11-1.9L480.11-1.9Q477.46 0 474.81 0L474.81 0 466.41 0Q463.76 0 461.26-1.9L461.26-1.9Q460.06-2.9 459.41-4.42 458.76-5.95 458.76-7.95L458.76-7.95 458.76-22.2Q458.76-26.25 461.26-28.2L461.26-28.2Q462.51-29.1 463.83-29.63 465.16-30.15 466.41-30.15L466.41-30.15 474.81-30.15Q476.01-30.15 477.46-29.68 478.91-29.2 480.16-28.4L480.16-28.4Q481.36-27.55 482.08-26.05 482.81-24.55 482.81-22.5L482.81-22.5 482.81-15.75Q482.81-14.6 482.13-13.7 481.46-12.8 479.66-12.8L479.66-12.8 468.86-12.8Q467.06-12.8 466.96-15.15L466.96-15.15Q466.96-17.5 468.86-17.5L468.86-17.5 477.36-17.5 477.31-22.15Q477.31-23.4 476.53-24.43 475.76-25.45 473.91-25.45L473.91-25.45 467.66-25.45Q465.81-25.45 465.03-24.43 464.26-23.4 464.26-22.15L464.26-22.15ZM513.9-22.85L523.55-22.85Q524.85-22.85 526.25-22.3 527.65-21.75 528.95-20.85L528.95-20.85 528.9-20.85Q530.2-19.95 530.9-18.4 531.6-16.85 531.6-14.85L531.6-14.85 531.6-8Q531.6-3.95 528.9-1.95L528.9-1.95Q527.6-1 526.23-0.48 524.85 0.05 523.55 0.05L523.55 0.05 512.65 0.05Q511.35 0.05 509.98-0.48 508.6-1 507.3-1.95L507.3-1.95Q504.6-3.95 504.6-8L504.6-8 504.6-11.3Q504.6-13.65 507.55-13.65L507.55-13.65Q510.55-13.65 510.55-11.3L510.55-11.3 510.55-8.4Q510.55-7.1 511.3-6.05 512.05-5 513.9-5L513.9-5 522.3-5Q524.15-5 524.9-6.05 525.65-7.1 525.65-8.4L525.65-8.4 525.65-14.45Q525.65-15.7 524.9-16.78 524.15-17.85 522.3-17.85L522.3-17.85 512.65-17.85Q510.05-17.85 507.3-19.75L507.3-19.75Q504.6-21.85 504.6-25.8L504.6-25.8 504.6-31.75Q504.6-33.75 505.3-35.27 506-36.8 507.3-37.75L507.3-37.75 507.25-37.75Q508.55-38.6 509.95-39.15 511.35-39.7 512.65-39.7L512.65-39.7 523.55-39.7Q524.85-39.7 526.25-39.15 527.65-38.6 528.95-37.75L528.95-37.75 528.9-37.75Q530.2-36.8 530.9-35.27 531.6-33.75 531.6-31.75L531.6-31.75 531.6-28.8Q531.6-26.45 528.6-26.45L528.6-26.45Q525.65-26.45 525.65-28.8L525.65-28.8 525.65-31.3Q525.65-32.55 524.9-33.6 524.15-34.65 522.3-34.65L522.3-34.65 513.9-34.65Q512.05-34.65 511.3-33.6 510.55-32.55 510.55-31.3L510.55-31.3 510.55-26.2Q510.55-24.9 511.3-23.88 512.05-22.85 513.9-22.85L513.9-22.85ZM543.2 7L540.6 7Q538.85 7 538.75 4.65L538.75 4.65Q538.75 2.3 540.6 2.3L540.6 2.3 542.8 2.3Q544.55 2.3 545.1 1.25L545.1 1.25 545.8-0.6 546.05-1.4 536.3-26.95 536.3-26.9Q535.9-28.1 536.47-28.95 537.05-29.8 538.25-30.2L538.25-30.2Q539.15-30.45 539.7-30.45L539.7-30.45Q541.15-30.45 541.5-28.75L541.5-28.75 545.45-18.9 548.8-10.7 554.15-28.65Q554.6-30.45 556.25-30.45L556.25-30.45Q556.65-30.45 557.55-30.2L557.55-30.2Q558.75-29.85 559.27-29.05 559.8-28.25 559.5-27.15L559.5-27.15Q557.25-19.5 554.92-11.75 552.6-4 550.35 3.6L550.35 3.6Q550.1 4.15 549.57 4.73 549.05 5.3 548.2 5.83 547.35 6.35 546.1 6.68 544.85 7 543.2 7L543.2 7ZM572.64-17.5L579.99-17.5Q581.24-17.5 582.67-16.93 584.09-16.35 585.34-15.5L585.34-15.5 585.29-15.5Q586.59-14.55 587.29-13.05 587.99-11.55 587.99-9.45L587.99-9.45 587.99-7.95Q587.99-3.85 585.29-1.9L585.29-1.9Q583.99-0.9 582.64-0.45 581.29 0 579.99 0L579.99 0 571.49 0Q570.19 0 568.84-0.45 567.49-0.9 566.19-1.9L566.19-1.9Q563.49-3.8 563.49-7.95L563.49-7.95 563.49-8.55Q563.49-10.7 566.24-10.65L566.24-10.65Q569.04-10.65 569.04-8.55L569.04-8.55 569.04-8Q569.04-6.8 569.79-5.75 570.54-4.7 572.44-4.7L572.44-4.7 579.04-4.7Q580.94-4.7 581.69-5.75 582.44-6.8 582.44-8L582.44-8 582.44-9.4Q582.44-10.05 582.27-10.65 582.09-11.25 581.69-11.73 581.29-12.2 580.64-12.5 579.99-12.8 579.04-12.8L579.04-12.8 571.74-12.8Q569.19-12.8 566.39-14.6L566.39-14.6Q563.74-16.3 563.74-20.45L563.74-20.45 563.74-22.15Q563.74-24.15 564.44-25.68 565.14-27.2 566.44-28.15L566.44-28.15 566.39-28.15Q567.64-29 569.04-29.55 570.44-30.1 571.74-30.1L571.74-30.1 579.74-30.1Q581.04-30.1 582.42-29.55 583.79-29 585.09-28.15L585.09-28.15 585.04-28.15Q586.34-27.2 587.04-25.68 587.74-24.15 587.74-22.15L587.74-22.15 587.74-21.7Q587.74-20.65 587.04-20.18 586.34-19.7 584.99-19.65L584.99-19.65Q582.24-19.6 582.24-21.7L582.24-21.7 582.24-22.1Q582.24-23.35 581.47-24.38 580.69-25.4 578.84-25.4L578.84-25.4 572.64-25.4Q570.79-25.4 570.02-24.38 569.24-23.35 569.24-22.1L569.24-22.1 569.24-20.9Q569.24-19.6 570.02-18.55 570.79-17.5 572.64-17.5L572.64-17.5ZM605.19-25.4L601.04-25.4 601.04-7.2Q601.04-5.9 601.59-5.2 602.14-4.5 603.94-4.5L603.94-4.5 605.24-4.5Q607.19-4.5 607.09-2.2L607.09-2.2Q607.09 0.15 605.24 0.15L605.24 0.15 603.59 0.15Q601.99 0.15 600.59-0.28 599.19-0.7 597.89-1.5L597.89-1.5 597.89-1.45Q595.44-3.05 595.44-7.15L595.44-7.15 595.44-25.4 593.49-25.4Q591.69-25.4 591.59-27.75L591.59-27.75Q591.59-30.1 593.49-30.1L593.49-30.1 595.44-30.1 595.44-35.45Q595.44-37.85 598.29-37.85L598.29-37.85Q601.04-37.85 601.04-35.45L601.04-35.45 601.04-30.1 605.19-30.1Q607.14-30.1 607.04-27.75L607.04-27.75Q607.04-25.4 605.19-25.4L605.19-25.4ZM616.94-22.15L616.94-8Q616.94-6.8 617.71-5.75 618.49-4.7 620.34-4.7L620.34-4.7 626.59-4.7Q628.44-4.7 629.21-5.63 629.99-6.55 629.99-7.75L629.99-7.75 629.99-8.3Q629.99-10.65 632.74-10.65L632.74-10.65Q635.49-10.65 635.49-8.3L635.49-8.3 635.49-7.7Q635.49-5.6 634.81-4.25 634.14-2.9 632.79-1.9L632.79-1.9Q630.14 0 627.49 0L627.49 0 619.09 0Q616.44 0 613.94-1.9L613.94-1.9Q612.74-2.9 612.09-4.42 611.44-5.95 611.44-7.95L611.44-7.95 611.44-22.2Q611.44-26.25 613.94-28.2L613.94-28.2Q615.19-29.1 616.51-29.63 617.84-30.15 619.09-30.15L619.09-30.15 627.49-30.15Q628.69-30.15 630.14-29.68 631.59-29.2 632.84-28.4L632.84-28.4Q634.04-27.55 634.76-26.05 635.49-24.55 635.49-22.5L635.49-22.5 635.49-15.75Q635.49-14.6 634.81-13.7 634.14-12.8 632.34-12.8L632.34-12.8 621.54-12.8Q619.74-12.8 619.64-15.15L619.64-15.15Q619.64-17.5 621.54-17.5L621.54-17.5 630.04-17.5 629.99-22.15Q629.99-23.4 629.21-24.43 628.44-25.45 626.59-25.45L626.59-25.45 620.34-25.45Q618.49-25.45 617.71-24.43 616.94-23.4 616.94-22.15L616.94-22.15ZM657.34-1.95L657.34-21.75Q657.34-22.4 657.14-23.03 656.94-23.65 656.64-24.2L656.64-24.2Q655.99-25.4 653.94-25.4L653.94-25.4 650.74-25.4Q648.69-25.4 647.99-24.2L647.99-24.2Q647.39-23.05 647.39-21.75L647.39-21.75 647.39-1.95Q647.39 0.4 644.64 0.4L644.64 0.4Q641.79 0.4 641.79-1.95L641.79-1.95 641.79-22.2Q641.79-26.3 644.49-28.2L644.49-28.2Q647.24-30.1 649.84-30.1L649.84-30.1 654.89-30.1Q656.04-30.1 657.44-29.65 658.84-29.2 660.14-28.25L660.14-28.25Q661.39-29.2 662.76-29.65 664.14-30.1 665.39-30.1L665.39-30.1 670.39-30.1Q673.04-30.1 675.69-28.2L675.69-28.2Q678.44-26.35 678.44-22.2L678.44-22.2 678.44-1.95Q678.44 0.4 675.64 0.4L675.64 0.4Q672.84 0.4 672.84-1.95L672.84-1.95 672.84-21.75Q672.84-22.4 672.69-23.05 672.54-23.7 672.14-24.25L672.14-24.25 672.19-24.2Q671.79-24.85 671.19-25.13 670.59-25.4 669.44-25.4L669.44-25.4 666.29-25.4Q664.19-25.4 663.54-24.2L663.54-24.2Q662.89-23.1 662.89-21.75L662.89-21.75 662.89-1.95Q662.89 0.4 660.14 0.4L660.14 0.4Q657.34 0.4 657.34-1.95L657.34-1.95Z" opacity="1" transform="matrix(1,0,0,1,0,0)" fill="black" class="wordmark-text-0" id="SvgjsPath1186" stroke-width="7" stroke="black" stroke-linejoin="round"></path></svg></g></svg></g><g transform="matrix(1,0,0,1,3.5,30.46829262331945)"><svg viewBox="0 0 309.416 13.60899739747727" height="13.60899739747727" width="309.416"><g transform="matrix(1,0,0,1,0,0)"><svg width="309.416" viewBox="-2.95 -39.45 983.84 43.95" height="13.60899739747727" data-palette-color="#1c4b82"><path d="M6.2-1.25L1.05-34.5Q0.9-35.05 6.1-35.05L6.1-35.05Q11.85-35.05 12-34.1L12-34.1 14.45-13.05 19.75-34.35Q20-35.1 23.65-35.1 27.3-35.1 27.55-34.4L27.55-34.4 32.75-12.95 35.65-34.2Q35.75-34.75 37.95-34.95 40.15-35.15 41.5-35.15L41.5-35.15Q46.75-35.15 46.6-34.45L46.6-34.45 40.55-1.3Q40.35-0.55 37.7-0.2 35.05 0.15 33.4 0.15L33.4 0.15Q27.2 0.15 26.9-1.25L26.9-1.25 23.5-15 19.8-1.3Q19.6-0.4 16.3 0L16.3 0Q14.6 0.15 12.9 0.15L12.9 0.15 9.7 0Q6.4-0.35 6.2-1.25L6.2-1.25ZM112.68-1.35L112.68-1.35Q109.53 0.5 104.58 0.5 99.63 0.5 96.23-2.88 92.83-6.25 92.83-12.23 92.83-18.2 96.11-21.85 99.38-25.5 104.38-25.5 109.38-25.5 112.11-22.95 114.83-20.4 114.83-16.75L114.83-16.75Q114.83-8.65 105.53-8.65L105.53-8.65 102.08-8.65Q102.08-7.15 102.91-6.58 103.73-6 105.33-6L105.33-6Q108.83-6 111.98-7.6L111.98-7.6Q112.03-7.65 112.43-6.9L112.43-6.9Q113.63-4.75 113.63-3.28 113.63-1.8 112.68-1.35ZM106.43-15.8L106.43-15.8Q106.43-17.9 104.38-17.9L104.38-17.9Q103.43-17.9 102.76-17.32 102.08-16.75 102.08-15.65L102.08-15.65 102.08-14.1 104.78-14.1Q106.43-14.1 106.43-15.8ZM232.3-35.45Q235.95-35.45 238.73-34.43 241.5-33.4 241.5-31.65 241.5-29.9 240.18-27.33 238.85-24.75 237.95-24.75L237.95-24.75Q237.7-24.75 237.38-25.03 237.05-25.3 235.88-25.63 234.7-25.95 233.85-25.95L233.85-25.95Q230.95-25.95 229.18-23.9 227.4-21.85 227.4-17.63 227.4-13.4 229.23-11.35 231.05-9.3 233.85-9.3L233.85-9.3Q235-9.3 236.43-9.63 237.85-9.95 238.45-10.55L238.45-10.55Q238.55-10.65 238.85-10.65 239.15-10.65 239.98-9.53 240.8-8.4 241.5-6.58 242.2-4.75 242.2-3.75L242.2-3.75Q242.2-1.8 239.2-0.65 236.2 0.5 232.1 0.5L232.1 0.5Q225.5 0.5 221.25-4.15 217-8.8 217-17.28 217-25.75 221.38-30.6 225.75-35.45 232.3-35.45L232.3-35.45ZM294.09-18.15L294.09-18.15Q292.69-20.65 292.69-22.23 292.69-23.8 293.54-24.25L293.54-24.25Q296.39-25.5 301.36-25.5 306.34-25.5 308.39-23.18 310.44-20.85 310.44-16.3L310.44-16.3 310.44-8.4 312.14-8.4Q312.99-8.4 313.46-7.4 313.94-6.4 313.94-4.65 313.94-2.9 313.06-1.2 312.19 0.5 310.69 0.5L310.69 0.5Q307.99 0.5 306.34-0.95L306.34-0.95Q305.59-1.55 305.19-2.4L305.19-2.4Q302.89 0.5 298.04 0.5L298.04 0.5Q294.39 0.5 291.89-2.1 289.39-4.7 289.39-8.25L289.39-8.25Q289.39-16.4 299.14-16.4L299.14-16.4 301.89-16.4 301.89-16.9Q301.89-18.2 301.46-18.57 301.04-18.95 299.49-18.95L299.49-18.95Q297.59-18.95 294.09-18.15ZM298.09-8.95L298.09-8.95Q298.09-7.85 298.69-7.28 299.29-6.7 300.21-6.7 301.14-6.7 301.89-7.45L301.89-7.45 301.89-11.3 300.49-11.3Q298.09-11.3 298.09-8.95ZM372.87-14L372.87-0.05Q372.87 0.3 368.32 0.3L368.32 0.3Q363.77 0.2 363.77-0.1L363.77-0.1 363.77-16.7 362.42-16.7Q361.62-16.7 361.15-17.68 360.67-18.65 360.67-20.1L360.67-20.1Q360.67-25.5 363.87-25.5L363.87-25.5Q366.12-25.5 367.62-24.13 369.12-22.75 369.12-21L369.12-21Q370.17-23.05 371.95-24.28 373.72-25.5 375.57-25.5L375.57-25.5Q378.47-25.5 379.07-24L379.07-24Q379.22-23.6 379.22-22.83 379.22-22.05 378.75-20.05 378.27-18.05 377.77-17.15 377.27-16.25 377.17-16.25 377.07-16.25 376.25-16.63 375.42-17 374.77-17L374.77-17Q372.87-17 372.87-14L372.87-14ZM445.76-1.35L445.76-1.35Q442.61 0.5 437.66 0.5 432.71 0.5 429.31-2.88 425.91-6.25 425.91-12.23 425.91-18.2 429.18-21.85 432.46-25.5 437.46-25.5 442.46-25.5 445.18-22.95 447.91-20.4 447.91-16.75L447.91-16.75Q447.91-8.65 438.61-8.65L438.61-8.65 435.16-8.65Q435.16-7.15 435.98-6.58 436.81-6 438.41-6L438.41-6Q441.91-6 445.06-7.6L445.06-7.6Q445.11-7.65 445.51-6.9L445.51-6.9Q446.71-4.75 446.71-3.28 446.71-1.8 445.76-1.35ZM439.51-15.8L439.51-15.8Q439.51-17.9 437.46-17.9L437.46-17.9Q436.51-17.9 435.83-17.32 435.16-16.75 435.16-15.65L435.16-15.65 435.16-14.1 437.86-14.1Q439.51-14.1 439.51-15.8ZM552.13-35L569.78-35Q570.63-35 570.63-30.58 570.63-26.15 569.78-26.15L569.78-26.15 560.63-26.15 560.63-20.45 566.73-20.45Q567.58-20.45 567.58-16.57 567.58-12.7 566.78-12.7L566.78-12.7 560.63-12.7 560.63-0.65Q560.63 0.05 558.75 0.28 556.88 0.5 555.63 0.5L555.63 0.5 553.28 0.4Q550.83 0.1 550.83-0.6L550.83-0.6 550.83-33.7Q550.83-34.5 551.15-34.75 551.48-35 552.13-35L552.13-35ZM619.99-2.95Q616.86-6.4 616.86-12.5 616.86-18.6 619.99-22.05 623.11-25.5 628.41-25.5 633.71-25.5 636.81-22.05 639.91-18.6 639.91-12.5 639.91-6.4 636.81-2.95 633.71 0.5 628.41 0.5 623.11 0.5 619.99-2.95ZM628.44-17.15Q625.61-17.15 625.61-12.55 625.61-7.95 628.44-7.95 631.26-7.95 631.26-12.55 631.26-17.15 628.44-17.15ZM699.55-14L699.55-0.05Q699.55 0.3 695 0.3L695 0.3Q690.45 0.2 690.45-0.1L690.45-0.1 690.45-16.7 689.1-16.7Q688.3-16.7 687.82-17.68 687.35-18.65 687.35-20.1L687.35-20.1Q687.35-25.5 690.55-25.5L690.55-25.5Q692.8-25.5 694.3-24.13 695.8-22.75 695.8-21L695.8-21Q696.85-23.05 698.62-24.28 700.4-25.5 702.25-25.5L702.25-25.5Q705.15-25.5 705.75-24L705.75-24Q705.9-23.6 705.9-22.83 705.9-22.05 705.42-20.05 704.95-18.05 704.45-17.15 703.95-16.25 703.85-16.25 703.75-16.25 702.92-16.63 702.1-17 701.45-17L701.45-17Q699.55-17 699.55-14L699.55-14ZM821.52-23.15L825.72-33.35Q826.37-35.1 832.12-35.1L832.12-35.1Q833.57-35.1 835.54-34.9 837.52-34.7 837.37-34.4L837.37-34.4 826.97-13.5 826.97-1.3Q826.97-0.45 824.22-0.1L824.22-0.1Q822.82 0.1 821.47 0.1 820.12 0.1 818.77-0.05L818.77-0.05Q816.02-0.4 816.02-1.3L816.02-1.3 816.02-13.2 805.27-34.3Q805.07-34.6 807.32-34.88 809.57-35.15 811.12-35.15L811.12-35.15Q817.27-35.15 817.87-33.35L817.87-33.35 821.52-23.15ZM884.13-2.95Q881-6.4 881-12.5 881-18.6 884.13-22.05 887.25-25.5 892.55-25.5 897.85-25.5 900.95-22.05 904.05-18.6 904.05-12.5 904.05-6.4 900.95-2.95 897.85 0.5 892.55 0.5 887.25 0.5 884.13-2.95ZM892.58-17.15Q889.75-17.15 889.75-12.55 889.75-7.95 892.58-7.95 895.4-7.95 895.4-12.55 895.4-17.15 892.58-17.15ZM952.49-9.95L952.49-24.7Q952.49-25.25 956.79-25.25 961.09-25.25 961.09-24.7L961.09-24.7 961.09-10.1Q961.09-7.6 962.69-7.6L962.69-7.6Q963.89-7.6 965.39-8.65L965.39-8.65 965.39-24.7Q965.39-25.2 969.64-25.2 973.89-25.2 973.89-24.7L973.89-24.7 973.89-8.3 975.19-8.3Q976.89-8.3 976.89-5.05L976.89-5.05Q976.89-3.4 976.19-1.7L976.19-1.7Q975.19 0.5 973.49 0.5L973.49 0.5Q970.14 0.5 968.54-2.25L968.54-2.25 968.49-2.2Q965.44 0.5 961.94 0.5L961.94 0.5Q957.09 0.5 954.79-1.93 952.49-4.35 952.49-9.95L952.49-9.95Z" opacity="1" transform="matrix(1,0,0,1,0,0)" fill="black" class="slogan-text-1" id="SvgjsPath1185" stroke-width="7" stroke="black" stroke-linejoin="round"></path></svg></g></svg></g></svg></g></svg></g></svg></g></svg></g></svg></g></mask><g transform="matrix(1,0,0,1,39.55199999999999,101.56135498960163)"><svg viewBox="0 0 316.416 44.077290020796724" height="44.077290020796724" width="316.416"><g><svg viewBox="0 0 316.416 44.077290020796724" height="44.077290020796724" width="316.416"><g><svg viewBox="0 0 316.416 44.077290020796724" height="44.077290020796724" width="316.416"><g><svg viewBox="0 0 316.416 44.077290020796724" height="44.077290020796724" width="316.416"><g id="textblocktransform"><svg viewBox="0 0 316.416 44.077290020796724" height="44.077290020796724" width="316.416" id="textblock"><g><svg viewBox="0 0 316.416 25.269655617483135" height="25.269655617483135" width="316.416"><g transform="matrix(1,0,0,1,0,0)"><svg width="316.416" viewBox="-0.2999999999999998 -44.45 682.74 55.45" height="25.269655617483135" data-palette-color="#1c4b82"><path d="M34.65-39.95L34.65-39.95Q36.25-39.95 38.15-39.2L38.15-39.2Q39.9-38.5 39.9-36.55L39.9-36.55 39.9-2.1Q39.9 0.3 36.95 0.3L36.95 0.3Q34 0.3 34-2.1L34-2.1 34-27.8 32.55-27.95 30.55-21.45 24.55-1.45Q24 0.3 21.85 0.25L21.85 0.25Q20.9 0.2 20.2-0.25 19.5-0.7 19.25-1.55L19.25-1.55 15.65-13.2Q14.55-16.65 13.45-20.23 12.35-23.8 11.05-28.15L11.05-28.15 9.6-27.95 9.6-2.1Q9.6 0.3 6.65 0.3L6.65 0.3Q3.7 0.3 3.7-2.1L3.7-2.1 3.7-36.55Q3.7-38.45 5.45-39.2L5.45-39.2Q7.3-39.95 9-39.9L9-39.9Q9.75-39.9 10.55-39.7 11.35-39.5 12.05-39.13 12.75-38.75 13.3-38.18 13.85-37.6 14.15-36.85L14.15-36.85 22-10.1Q22.85-13.05 23.8-16.5 24.75-19.95 25.75-23.5 26.75-27.05 27.73-30.53 28.7-34 29.55-37L29.55-37Q29.85-37.7 30.4-38.25 30.95-38.8 31.65-39.18 32.35-39.55 33.13-39.75 33.9-39.95 34.65-39.95ZM52-22.15L52-8Q52-6.8 52.77-5.75 53.55-4.7 55.4-4.7L55.4-4.7 61.65-4.7Q63.5-4.7 64.27-5.63 65.05-6.55 65.05-7.75L65.05-7.75 65.05-8.3Q65.05-10.65 67.8-10.65L67.8-10.65Q70.55-10.65 70.55-8.3L70.55-8.3 70.55-7.7Q70.55-5.6 69.87-4.25 69.2-2.9 67.85-1.9L67.85-1.9Q65.2 0 62.55 0L62.55 0 54.15 0Q51.5 0 49-1.9L49-1.9Q47.8-2.9 47.15-4.42 46.5-5.95 46.5-7.95L46.5-7.95 46.5-22.2Q46.5-26.25 49-28.2L49-28.2Q50.25-29.1 51.57-29.63 52.9-30.15 54.15-30.15L54.15-30.15 62.55-30.15Q63.75-30.15 65.2-29.68 66.65-29.2 67.9-28.4L67.9-28.4Q69.1-27.55 69.82-26.05 70.55-24.55 70.55-22.5L70.55-22.5 70.55-15.75Q70.55-14.6 69.87-13.7 69.2-12.8 67.4-12.8L67.4-12.8 56.6-12.8Q54.8-12.8 54.7-15.15L54.7-15.15Q54.7-17.5 56.6-17.5L56.6-17.5 65.1-17.5 65.05-22.15Q65.05-23.4 64.27-24.43 63.5-25.45 61.65-25.45L61.65-25.45 55.4-25.45Q53.55-25.45 52.77-24.43 52-23.4 52-22.15L52-22.15ZM95.45-1.75L95.45-25.4 85.8-25.4Q83.75-25.4 83.1-24.2L83.1-24.2Q82.4-23.15 82.4-21.75L82.4-21.75 82.4-7.35Q82.4-6.05 83.2-5.38 84-4.7 85.85-4.7L85.85-4.7 91-4.7Q92.8-4.7 92.8-2.35L92.8-2.35Q92.8-1.35 92.37-0.68 91.95 0 91 0L91 0 84.95 0Q81.8 0 79.35-1.6L79.35-1.6Q76.9-3.1 76.9-7.3L76.9-7.3 76.9-22.2Q76.9-24.25 77.55-25.75 78.2-27.25 79.6-28.2L79.6-28.2Q82.25-30.1 84.9-30.1L84.9-30.1 95.45-30.1 95.45-37.6Q95.45-40 98.2-40L98.2-40Q100.95-40 100.95-37.6L100.95-37.6 100.95-2.1Q100.95 0.3 98.2 0.3L98.2 0.3Q97.15 0.3 96.3-0.08 95.45-0.45 95.45-1.75L95.45-1.75ZM113.19-27.9L113.19-2.1Q113.19 0.3 110.44 0.3L110.44 0.3Q107.64 0.3 107.64-2.1L107.64-2.1 107.64-27.9Q107.64-30.3 110.44-30.3L110.44-30.3Q113.19-30.3 113.19-27.9L113.19-27.9ZM114.24-36.6L114.24-36.6Q114.24-35 113.14-33.9 112.04-32.8 110.44-32.8L110.44-32.8Q108.84-32.8 107.72-33.9 106.59-35 106.59-36.6L106.59-36.6Q106.59-38.25 107.72-39.35 108.84-40.45 110.44-40.45L110.44-40.45Q112.04-40.45 113.14-39.35 114.24-38.25 114.24-36.6ZM144.19-10.3L144.19-7.95Q144.19-3.85 141.49-1.9L141.49-1.9Q138.84 0 136.19 0L136.19 0 127.79 0Q125.14 0 122.64-1.9L122.64-1.9Q121.44-2.9 120.79-4.42 120.14-5.95 120.14-7.95L120.14-7.95 120.14-22.2Q120.14-26.25 122.64-28.2L122.64-28.2Q123.89-29.1 125.22-29.63 126.54-30.15 127.79-30.15L127.79-30.15 136.19-30.15Q137.39-30.15 138.84-29.68 140.29-29.2 141.54-28.4L141.54-28.4Q142.74-27.55 143.47-26.05 144.19-24.55 144.19-22.5L144.19-22.5 144.19-20Q144.19-17.6 141.44-17.6L141.44-17.6Q138.69-17.6 138.69-20L138.69-20 138.69-22.15Q138.69-23.4 137.92-24.43 137.14-25.45 135.29-25.45L135.29-25.45 129.04-25.45Q127.19-25.45 126.42-24.43 125.64-23.4 125.64-22.15L125.64-22.15 125.64-8Q125.64-6.8 126.42-5.75 127.19-4.7 129.04-4.7L129.04-4.7 135.29-4.7Q137.14-4.7 137.92-5.75 138.69-6.8 138.69-8L138.69-8 138.69-10.3Q138.69-12.65 141.44-12.65L141.44-12.65Q144.19-12.65 144.19-10.3L144.19-10.3ZM156.09-27.9L156.09-2.1Q156.09 0.3 153.34 0.3L153.34 0.3Q150.54 0.3 150.54-2.1L150.54-2.1 150.54-27.9Q150.54-30.3 153.34-30.3L153.34-30.3Q156.09-30.3 156.09-27.9L156.09-27.9ZM157.14-36.6L157.14-36.6Q157.14-35 156.04-33.9 154.94-32.8 153.34-32.8L153.34-32.8Q151.74-32.8 150.61-33.9 149.49-35 149.49-36.6L149.49-36.6Q149.49-38.25 150.61-39.35 151.74-40.45 153.34-40.45L153.34-40.45Q154.94-40.45 156.04-39.35 157.14-38.25 157.14-36.6ZM168.54-21.75L168.54-2.1Q168.54 0.3 165.79 0.3L165.79 0.3Q163.04 0.3 163.04-2.1L163.04-2.1 163.04-22.2Q163.04-24.25 163.69-25.75 164.34-27.25 165.74-28.2L165.74-28.2Q168.39-30.1 171.04-30.1L171.04-30.1 179.09-30.1Q181.64-30.1 184.39-28.2L184.39-28.2Q187.09-26.3 187.09-22.2L187.09-22.2 187.09-2.1Q187.09 0.3 184.34 0.3L184.34 0.3Q181.59 0.3 181.59-2.1L181.59-2.1 181.59-21.75Q181.59-23.05 180.79-24.25L180.79-24.25 180.84-24.2Q180.19-25.4 178.19-25.4L178.19-25.4 171.94-25.4Q169.89-25.4 169.24-24.2L169.24-24.2Q168.54-23.15 168.54-21.75L168.54-21.75ZM199.03-22.15L199.03-8Q199.03-6.8 199.81-5.75 200.58-4.7 202.43-4.7L202.43-4.7 208.68-4.7Q210.53-4.7 211.31-5.63 212.08-6.55 212.08-7.75L212.08-7.75 212.08-8.3Q212.08-10.65 214.83-10.65L214.83-10.65Q217.58-10.65 217.58-8.3L217.58-8.3 217.58-7.7Q217.58-5.6 216.91-4.25 216.23-2.9 214.88-1.9L214.88-1.9Q212.23 0 209.58 0L209.58 0 201.18 0Q198.53 0 196.03-1.9L196.03-1.9Q194.83-2.9 194.18-4.42 193.53-5.95 193.53-7.95L193.53-7.95 193.53-22.2Q193.53-26.25 196.03-28.2L196.03-28.2Q197.28-29.1 198.61-29.63 199.93-30.15 201.18-30.15L201.18-30.15 209.58-30.15Q210.78-30.15 212.23-29.68 213.68-29.2 214.93-28.4L214.93-28.4Q216.13-27.55 216.86-26.05 217.58-24.55 217.58-22.5L217.58-22.5 217.58-15.75Q217.58-14.6 216.91-13.7 216.23-12.8 214.43-12.8L214.43-12.8 203.63-12.8Q201.83-12.8 201.73-15.15L201.73-15.15Q201.73-17.5 203.63-17.5L203.63-17.5 212.13-17.5 212.08-22.15Q212.08-23.4 211.31-24.43 210.53-25.45 208.68-25.45L208.68-25.45 202.43-25.45Q200.58-25.45 199.81-24.43 199.03-23.4 199.03-22.15L199.03-22.15ZM248.68-22.85L258.33-22.85Q259.63-22.85 261.03-22.3 262.43-21.75 263.73-20.85L263.73-20.85 263.68-20.85Q264.98-19.95 265.68-18.4 266.38-16.85 266.38-14.85L266.38-14.85 266.38-8Q266.38-3.95 263.68-1.95L263.68-1.95Q262.38-1 261-0.48 259.63 0.05 258.33 0.05L258.33 0.05 247.43 0.05Q246.13 0.05 244.75-0.48 243.38-1 242.08-1.95L242.08-1.95Q239.38-3.95 239.38-8L239.38-8 239.38-11.3Q239.38-13.65 242.33-13.65L242.33-13.65Q245.33-13.65 245.33-11.3L245.33-11.3 245.33-8.4Q245.33-7.1 246.08-6.05 246.83-5 248.68-5L248.68-5 257.08-5Q258.93-5 259.68-6.05 260.43-7.1 260.43-8.4L260.43-8.4 260.43-14.45Q260.43-15.7 259.68-16.78 258.93-17.85 257.08-17.85L257.08-17.85 247.43-17.85Q244.83-17.85 242.08-19.75L242.08-19.75Q239.38-21.85 239.38-25.8L239.38-25.8 239.38-31.75Q239.38-33.75 240.08-35.27 240.78-36.8 242.08-37.75L242.08-37.75 242.03-37.75Q243.33-38.6 244.73-39.15 246.13-39.7 247.43-39.7L247.43-39.7 258.33-39.7Q259.63-39.7 261.03-39.15 262.43-38.6 263.73-37.75L263.73-37.75 263.68-37.75Q264.98-36.8 265.68-35.27 266.38-33.75 266.38-31.75L266.38-31.75 266.38-28.8Q266.38-26.45 263.38-26.45L263.38-26.45Q260.43-26.45 260.43-28.8L260.43-28.8 260.43-31.3Q260.43-32.55 259.68-33.6 258.93-34.65 257.08-34.65L257.08-34.65 248.68-34.65Q246.83-34.65 246.08-33.6 245.33-32.55 245.33-31.3L245.33-31.3 245.33-26.2Q245.33-24.9 246.08-23.88 246.83-22.85 248.68-22.85L248.68-22.85ZM297.83-28L297.83-7.95Q297.83-5.95 297.13-4.4 296.43-2.85 295.13-1.9L295.13-1.9 295.18-1.9Q293.93-1.05 292.53-0.53 291.13 0 289.83 0L289.83 0 281.78 0Q280.53 0 279.1-0.53 277.68-1.05 276.43-1.9L276.43-1.9 276.48-1.9Q275.18-2.85 274.48-4.4 273.78-5.95 273.78-7.95L273.78-7.95 273.78-28Q273.78-30.4 276.53-30.4L276.53-30.4Q279.28-30.4 279.28-28L279.28-28 279.28-8.35Q279.28-6.95 279.98-5.9L279.98-5.9Q280.63-4.7 282.68-4.7L282.68-4.7 288.93-4.7Q290.93-4.7 291.58-5.9L291.58-5.9 291.53-5.85Q292.33-7.05 292.33-8.35L292.33-8.35 292.33-28Q292.33-30.4 295.08-30.4L295.08-30.4Q297.83-30.4 297.83-28L297.83-28ZM309.57-25.4L309.52-2.1Q309.52-0.9 308.67-0.3 307.82 0.3 306.82 0.3L306.82 0.3Q304.07 0.3 304.07-2.1L304.07-2.1 304.07-37.6Q304.07-40 306.82-40L306.82-40Q309.57-40 309.57-37.6L309.57-37.6 309.57-30.1 320.12-30.1Q322.67-30.1 325.42-28.2L325.42-28.2Q328.12-26.3 328.12-22.2L328.12-22.2 328.12-7.3Q328.12-3.15 325.67-1.6L325.67-1.6Q323.22 0 320.07 0L320.07 0 314.17 0Q312.37 0 312.27-2.35L312.27-2.35Q312.27-4.7 314.17-4.7L314.17-4.7 319.17-4.7Q321.02-4.7 321.82-5.38 322.62-6.05 322.62-7.35L322.62-7.35 322.62-21.75Q322.62-23.05 321.82-24.25L321.82-24.25 321.87-24.2Q321.22-25.4 319.22-25.4L319.22-25.4 309.57-25.4ZM343.17-17.5L350.52-17.5Q351.77-17.5 353.2-16.93 354.62-16.35 355.87-15.5L355.87-15.5 355.82-15.5Q357.12-14.55 357.82-13.05 358.52-11.55 358.52-9.45L358.52-9.45 358.52-7.95Q358.52-3.85 355.82-1.9L355.82-1.9Q354.52-0.9 353.17-0.45 351.82 0 350.52 0L350.52 0 342.02 0Q340.72 0 339.37-0.45 338.02-0.9 336.72-1.9L336.72-1.9Q334.02-3.8 334.02-7.95L334.02-7.95 334.02-8.55Q334.02-10.7 336.77-10.65L336.77-10.65Q339.57-10.65 339.57-8.55L339.57-8.55 339.57-8Q339.57-6.8 340.32-5.75 341.07-4.7 342.97-4.7L342.97-4.7 349.57-4.7Q351.47-4.7 352.22-5.75 352.97-6.8 352.97-8L352.97-8 352.97-9.4Q352.97-10.05 352.8-10.65 352.62-11.25 352.22-11.73 351.82-12.2 351.17-12.5 350.52-12.8 349.57-12.8L349.57-12.8 342.27-12.8Q339.72-12.8 336.92-14.6L336.92-14.6Q334.27-16.3 334.27-20.45L334.27-20.45 334.27-22.15Q334.27-24.15 334.97-25.68 335.67-27.2 336.97-28.15L336.97-28.15 336.92-28.15Q338.17-29 339.57-29.55 340.97-30.1 342.27-30.1L342.27-30.1 350.27-30.1Q351.57-30.1 352.95-29.55 354.32-29 355.62-28.15L355.62-28.15 355.57-28.15Q356.87-27.2 357.57-25.68 358.27-24.15 358.27-22.15L358.27-22.15 358.27-21.7Q358.27-20.65 357.57-20.18 356.87-19.7 355.52-19.65L355.52-19.65Q352.77-19.6 352.77-21.7L352.77-21.7 352.77-22.1Q352.77-23.35 352-24.38 351.22-25.4 349.37-25.4L349.37-25.4 343.17-25.4Q341.32-25.4 340.55-24.38 339.77-23.35 339.77-22.1L339.77-22.1 339.77-20.9Q339.77-19.6 340.55-18.55 341.32-17.5 343.17-17.5L343.17-17.5ZM375.72-25.4L371.57-25.4 371.57-7.2Q371.57-5.9 372.12-5.2 372.67-4.5 374.47-4.5L374.47-4.5 375.77-4.5Q377.72-4.5 377.62-2.2L377.62-2.2Q377.62 0.15 375.77 0.15L375.77 0.15 374.12 0.15Q372.52 0.15 371.12-0.28 369.72-0.7 368.42-1.5L368.42-1.5 368.42-1.45Q365.97-3.05 365.97-7.15L365.97-7.15 365.97-25.4 364.02-25.4Q362.22-25.4 362.12-27.75L362.12-27.75Q362.12-30.1 364.02-30.1L364.02-30.1 365.97-30.1 365.97-35.45Q365.97-37.85 368.82-37.85L368.82-37.85Q371.57-37.85 371.57-35.45L371.57-35.45 371.57-30.1 375.72-30.1Q377.67-30.1 377.57-27.75L377.57-27.75Q377.57-25.4 375.72-25.4L375.72-25.4ZM387.62-27.9L387.62-2.1Q387.62 0.3 384.87 0.3L384.87 0.3Q382.07 0.3 382.07-2.1L382.07-2.1 382.07-27.9Q382.07-30.3 384.87-30.3L384.87-30.3Q387.62-30.3 387.62-27.9L387.62-27.9ZM388.67-36.6L388.67-36.6Q388.67-35 387.57-33.9 386.47-32.8 384.87-32.8L384.87-32.8Q383.27-32.8 382.14-33.9 381.02-35 381.02-36.6L381.02-36.6Q381.02-38.25 382.14-39.35 383.27-40.45 384.87-40.45L384.87-40.45Q386.47-40.45 387.57-39.35 388.67-38.25 388.67-36.6ZM405.26-25.4L401.11-25.4 401.11-7.2Q401.11-5.9 401.66-5.2 402.21-4.5 404.01-4.5L404.01-4.5 405.31-4.5Q407.26-4.5 407.16-2.2L407.16-2.2Q407.16 0.15 405.31 0.15L405.31 0.15 403.66 0.15Q402.06 0.15 400.66-0.28 399.26-0.7 397.96-1.5L397.96-1.5 397.96-1.45Q395.51-3.05 395.51-7.15L395.51-7.15 395.51-25.4 393.56-25.4Q391.76-25.4 391.66-27.75L391.66-27.75Q391.66-30.1 393.56-30.1L393.56-30.1 395.51-30.1 395.51-35.45Q395.51-37.85 398.36-37.85L398.36-37.85Q401.11-37.85 401.11-35.45L401.11-35.45 401.11-30.1 405.26-30.1Q407.21-30.1 407.11-27.75L407.11-27.75Q407.11-25.4 405.26-25.4L405.26-25.4ZM435.56-28L435.56-7.95Q435.56-5.95 434.86-4.4 434.16-2.85 432.86-1.9L432.86-1.9 432.91-1.9Q431.66-1.05 430.26-0.53 428.86 0 427.56 0L427.56 0 419.51 0Q418.26 0 416.84-0.53 415.41-1.05 414.16-1.9L414.16-1.9 414.21-1.9Q412.91-2.85 412.21-4.4 411.51-5.95 411.51-7.95L411.51-7.95 411.51-28Q411.51-30.4 414.26-30.4L414.26-30.4Q417.01-30.4 417.01-28L417.01-28 417.01-8.35Q417.01-6.95 417.71-5.9L417.71-5.9Q418.36-4.7 420.41-4.7L420.41-4.7 426.66-4.7Q428.66-4.7 429.31-5.9L429.31-5.9 429.26-5.85Q430.06-7.05 430.06-8.35L430.06-8.35 430.06-28Q430.06-30.4 432.81-30.4L432.81-30.4Q435.56-30.4 435.56-28L435.56-28ZM452.51-25.4L448.36-25.4 448.36-7.2Q448.36-5.9 448.91-5.2 449.46-4.5 451.26-4.5L451.26-4.5 452.56-4.5Q454.51-4.5 454.41-2.2L454.41-2.2Q454.41 0.15 452.56 0.15L452.56 0.15 450.91 0.15Q449.31 0.15 447.91-0.28 446.51-0.7 445.21-1.5L445.21-1.5 445.21-1.45Q442.76-3.05 442.76-7.15L442.76-7.15 442.76-25.4 440.81-25.4Q439.01-25.4 438.91-27.75L438.91-27.75Q438.91-30.1 440.81-30.1L440.81-30.1 442.76-30.1 442.76-35.45Q442.76-37.85 445.61-37.85L445.61-37.85Q448.36-37.85 448.36-35.45L448.36-35.45 448.36-30.1 452.51-30.1Q454.46-30.1 454.36-27.75L454.36-27.75Q454.36-25.4 452.51-25.4L452.51-25.4ZM464.26-22.15L464.26-8Q464.26-6.8 465.03-5.75 465.81-4.7 467.66-4.7L467.66-4.7 473.91-4.7Q475.76-4.7 476.53-5.63 477.31-6.55 477.31-7.75L477.31-7.75 477.31-8.3Q477.31-10.65 480.06-10.65L480.06-10.65Q482.81-10.65 482.81-8.3L482.81-8.3 482.81-7.7Q482.81-5.6 482.13-4.25 481.46-2.9 480.11-1.9L480.11-1.9Q477.46 0 474.81 0L474.81 0 466.41 0Q463.76 0 461.26-1.9L461.26-1.9Q460.06-2.9 459.41-4.42 458.76-5.95 458.76-7.95L458.76-7.95 458.76-22.2Q458.76-26.25 461.26-28.2L461.26-28.2Q462.51-29.1 463.83-29.63 465.16-30.15 466.41-30.15L466.41-30.15 474.81-30.15Q476.01-30.15 477.46-29.68 478.91-29.2 480.16-28.4L480.16-28.4Q481.36-27.55 482.08-26.05 482.81-24.55 482.81-22.5L482.81-22.5 482.81-15.75Q482.81-14.6 482.13-13.7 481.46-12.8 479.66-12.8L479.66-12.8 468.86-12.8Q467.06-12.8 466.96-15.15L466.96-15.15Q466.96-17.5 468.86-17.5L468.86-17.5 477.36-17.5 477.31-22.15Q477.31-23.4 476.53-24.43 475.76-25.45 473.91-25.45L473.91-25.45 467.66-25.45Q465.81-25.45 465.03-24.43 464.26-23.4 464.26-22.15L464.26-22.15ZM513.9-22.85L523.55-22.85Q524.85-22.85 526.25-22.3 527.65-21.75 528.95-20.85L528.95-20.85 528.9-20.85Q530.2-19.95 530.9-18.4 531.6-16.85 531.6-14.85L531.6-14.85 531.6-8Q531.6-3.95 528.9-1.95L528.9-1.95Q527.6-1 526.23-0.48 524.85 0.05 523.55 0.05L523.55 0.05 512.65 0.05Q511.35 0.05 509.98-0.48 508.6-1 507.3-1.95L507.3-1.95Q504.6-3.95 504.6-8L504.6-8 504.6-11.3Q504.6-13.65 507.55-13.65L507.55-13.65Q510.55-13.65 510.55-11.3L510.55-11.3 510.55-8.4Q510.55-7.1 511.3-6.05 512.05-5 513.9-5L513.9-5 522.3-5Q524.15-5 524.9-6.05 525.65-7.1 525.65-8.4L525.65-8.4 525.65-14.45Q525.65-15.7 524.9-16.78 524.15-17.85 522.3-17.85L522.3-17.85 512.65-17.85Q510.05-17.85 507.3-19.75L507.3-19.75Q504.6-21.85 504.6-25.8L504.6-25.8 504.6-31.75Q504.6-33.75 505.3-35.27 506-36.8 507.3-37.75L507.3-37.75 507.25-37.75Q508.55-38.6 509.95-39.15 511.35-39.7 512.65-39.7L512.65-39.7 523.55-39.7Q524.85-39.7 526.25-39.15 527.65-38.6 528.95-37.75L528.95-37.75 528.9-37.75Q530.2-36.8 530.9-35.27 531.6-33.75 531.6-31.75L531.6-31.75 531.6-28.8Q531.6-26.45 528.6-26.45L528.6-26.45Q525.65-26.45 525.65-28.8L525.65-28.8 525.65-31.3Q525.65-32.55 524.9-33.6 524.15-34.65 522.3-34.65L522.3-34.65 513.9-34.65Q512.05-34.65 511.3-33.6 510.55-32.55 510.55-31.3L510.55-31.3 510.55-26.2Q510.55-24.9 511.3-23.88 512.05-22.85 513.9-22.85L513.9-22.85ZM543.2 7L540.6 7Q538.85 7 538.75 4.65L538.75 4.65Q538.75 2.3 540.6 2.3L540.6 2.3 542.8 2.3Q544.55 2.3 545.1 1.25L545.1 1.25 545.8-0.6 546.05-1.4 536.3-26.95 536.3-26.9Q535.9-28.1 536.47-28.95 537.05-29.8 538.25-30.2L538.25-30.2Q539.15-30.45 539.7-30.45L539.7-30.45Q541.15-30.45 541.5-28.75L541.5-28.75 545.45-18.9 548.8-10.7 554.15-28.65Q554.6-30.45 556.25-30.45L556.25-30.45Q556.65-30.45 557.55-30.2L557.55-30.2Q558.75-29.85 559.27-29.05 559.8-28.25 559.5-27.15L559.5-27.15Q557.25-19.5 554.92-11.75 552.6-4 550.35 3.6L550.35 3.6Q550.1 4.15 549.57 4.73 549.05 5.3 548.2 5.83 547.35 6.35 546.1 6.68 544.85 7 543.2 7L543.2 7ZM572.64-17.5L579.99-17.5Q581.24-17.5 582.67-16.93 584.09-16.35 585.34-15.5L585.34-15.5 585.29-15.5Q586.59-14.55 587.29-13.05 587.99-11.55 587.99-9.45L587.99-9.45 587.99-7.95Q587.99-3.85 585.29-1.9L585.29-1.9Q583.99-0.9 582.64-0.45 581.29 0 579.99 0L579.99 0 571.49 0Q570.19 0 568.84-0.45 567.49-0.9 566.19-1.9L566.19-1.9Q563.49-3.8 563.49-7.95L563.49-7.95 563.49-8.55Q563.49-10.7 566.24-10.65L566.24-10.65Q569.04-10.65 569.04-8.55L569.04-8.55 569.04-8Q569.04-6.8 569.79-5.75 570.54-4.7 572.44-4.7L572.44-4.7 579.04-4.7Q580.94-4.7 581.69-5.75 582.44-6.8 582.44-8L582.44-8 582.44-9.4Q582.44-10.05 582.27-10.65 582.09-11.25 581.69-11.73 581.29-12.2 580.64-12.5 579.99-12.8 579.04-12.8L579.04-12.8 571.74-12.8Q569.19-12.8 566.39-14.6L566.39-14.6Q563.74-16.3 563.74-20.45L563.74-20.45 563.74-22.15Q563.74-24.15 564.44-25.68 565.14-27.2 566.44-28.15L566.44-28.15 566.39-28.15Q567.64-29 569.04-29.55 570.44-30.1 571.74-30.1L571.74-30.1 579.74-30.1Q581.04-30.1 582.42-29.55 583.79-29 585.09-28.15L585.09-28.15 585.04-28.15Q586.34-27.2 587.04-25.68 587.74-24.15 587.74-22.15L587.74-22.15 587.74-21.7Q587.74-20.65 587.04-20.18 586.34-19.7 584.99-19.65L584.99-19.65Q582.24-19.6 582.24-21.7L582.24-21.7 582.24-22.1Q582.24-23.35 581.47-24.38 580.69-25.4 578.84-25.4L578.84-25.4 572.64-25.4Q570.79-25.4 570.02-24.38 569.24-23.35 569.24-22.1L569.24-22.1 569.24-20.9Q569.24-19.6 570.02-18.55 570.79-17.5 572.64-17.5L572.64-17.5ZM605.19-25.4L601.04-25.4 601.04-7.2Q601.04-5.9 601.59-5.2 602.14-4.5 603.94-4.5L603.94-4.5 605.24-4.5Q607.19-4.5 607.09-2.2L607.09-2.2Q607.09 0.15 605.24 0.15L605.24 0.15 603.59 0.15Q601.99 0.15 600.59-0.28 599.19-0.7 597.89-1.5L597.89-1.5 597.89-1.45Q595.44-3.05 595.44-7.15L595.44-7.15 595.44-25.4 593.49-25.4Q591.69-25.4 591.59-27.75L591.59-27.75Q591.59-30.1 593.49-30.1L593.49-30.1 595.44-30.1 595.44-35.45Q595.44-37.85 598.29-37.85L598.29-37.85Q601.04-37.85 601.04-35.45L601.04-35.45 601.04-30.1 605.19-30.1Q607.14-30.1 607.04-27.75L607.04-27.75Q607.04-25.4 605.19-25.4L605.19-25.4ZM616.94-22.15L616.94-8Q616.94-6.8 617.71-5.75 618.49-4.7 620.34-4.7L620.34-4.7 626.59-4.7Q628.44-4.7 629.21-5.63 629.99-6.55 629.99-7.75L629.99-7.75 629.99-8.3Q629.99-10.65 632.74-10.65L632.74-10.65Q635.49-10.65 635.49-8.3L635.49-8.3 635.49-7.7Q635.49-5.6 634.81-4.25 634.14-2.9 632.79-1.9L632.79-1.9Q630.14 0 627.49 0L627.49 0 619.09 0Q616.44 0 613.94-1.9L613.94-1.9Q612.74-2.9 612.09-4.42 611.44-5.95 611.44-7.95L611.44-7.95 611.44-22.2Q611.44-26.25 613.94-28.2L613.94-28.2Q615.19-29.1 616.51-29.63 617.84-30.15 619.09-30.15L619.09-30.15 627.49-30.15Q628.69-30.15 630.14-29.68 631.59-29.2 632.84-28.4L632.84-28.4Q634.04-27.55 634.76-26.05 635.49-24.55 635.49-22.5L635.49-22.5 635.49-15.75Q635.49-14.6 634.81-13.7 634.14-12.8 632.34-12.8L632.34-12.8 621.54-12.8Q619.74-12.8 619.64-15.15L619.64-15.15Q619.64-17.5 621.54-17.5L621.54-17.5 630.04-17.5 629.99-22.15Q629.99-23.4 629.21-24.43 628.44-25.45 626.59-25.45L626.59-25.45 620.34-25.45Q618.49-25.45 617.71-24.43 616.94-23.4 616.94-22.15L616.94-22.15ZM657.34-1.95L657.34-21.75Q657.34-22.4 657.14-23.03 656.94-23.65 656.64-24.2L656.64-24.2Q655.99-25.4 653.94-25.4L653.94-25.4 650.74-25.4Q648.69-25.4 647.99-24.2L647.99-24.2Q647.39-23.05 647.39-21.75L647.39-21.75 647.39-1.95Q647.39 0.4 644.64 0.4L644.64 0.4Q641.79 0.4 641.79-1.95L641.79-1.95 641.79-22.2Q641.79-26.3 644.49-28.2L644.49-28.2Q647.24-30.1 649.84-30.1L649.84-30.1 654.89-30.1Q656.04-30.1 657.44-29.65 658.84-29.2 660.14-28.25L660.14-28.25Q661.39-29.2 662.76-29.65 664.14-30.1 665.39-30.1L665.39-30.1 670.39-30.1Q673.04-30.1 675.69-28.2L675.69-28.2Q678.44-26.35 678.44-22.2L678.44-22.2 678.44-1.95Q678.44 0.4 675.64 0.4L675.64 0.4Q672.84 0.4 672.84-1.95L672.84-1.95 672.84-21.75Q672.84-22.4 672.69-23.05 672.54-23.7 672.14-24.25L672.14-24.25 672.19-24.2Q671.79-24.85 671.19-25.13 670.59-25.4 669.44-25.4L669.44-25.4 666.29-25.4Q664.19-25.4 663.54-24.2L663.54-24.2Q662.89-23.1 662.89-21.75L662.89-21.75 662.89-1.95Q662.89 0.4 660.14 0.4L660.14 0.4Q657.34 0.4 657.34-1.95L657.34-1.95Z" opacity="1" transform="matrix(1,0,0,1,0,0)" fill="#1c4b82" class="wordmark-text-0" data-fill-palette-color="primary" id="text-0"></path></svg></g></svg></g><g transform="matrix(1,0,0,1,3.5,30.46829262331945)"><svg viewBox="0 0 309.416 13.60899739747727" height="13.60899739747727" width="309.416"><g transform="matrix(1,0,0,1,0,0)"><svg width="309.416" viewBox="-2.95 -39.45 983.84 43.95" height="13.60899739747727" data-palette-color="#1c4b82"><path d="M6.2-1.25L1.05-34.5Q0.9-35.05 6.1-35.05L6.1-35.05Q11.85-35.05 12-34.1L12-34.1 14.45-13.05 19.75-34.35Q20-35.1 23.65-35.1 27.3-35.1 27.55-34.4L27.55-34.4 32.75-12.95 35.65-34.2Q35.75-34.75 37.95-34.95 40.15-35.15 41.5-35.15L41.5-35.15Q46.75-35.15 46.6-34.45L46.6-34.45 40.55-1.3Q40.35-0.55 37.7-0.2 35.05 0.15 33.4 0.15L33.4 0.15Q27.2 0.15 26.9-1.25L26.9-1.25 23.5-15 19.8-1.3Q19.6-0.4 16.3 0L16.3 0Q14.6 0.15 12.9 0.15L12.9 0.15 9.7 0Q6.4-0.35 6.2-1.25L6.2-1.25ZM112.68-1.35L112.68-1.35Q109.53 0.5 104.58 0.5 99.63 0.5 96.23-2.88 92.83-6.25 92.83-12.23 92.83-18.2 96.11-21.85 99.38-25.5 104.38-25.5 109.38-25.5 112.11-22.95 114.83-20.4 114.83-16.75L114.83-16.75Q114.83-8.65 105.53-8.65L105.53-8.65 102.08-8.65Q102.08-7.15 102.91-6.58 103.73-6 105.33-6L105.33-6Q108.83-6 111.98-7.6L111.98-7.6Q112.03-7.65 112.43-6.9L112.43-6.9Q113.63-4.75 113.63-3.28 113.63-1.8 112.68-1.35ZM106.43-15.8L106.43-15.8Q106.43-17.9 104.38-17.9L104.38-17.9Q103.43-17.9 102.76-17.32 102.08-16.75 102.08-15.65L102.08-15.65 102.08-14.1 104.78-14.1Q106.43-14.1 106.43-15.8ZM232.3-35.45Q235.95-35.45 238.73-34.43 241.5-33.4 241.5-31.65 241.5-29.9 240.18-27.33 238.85-24.75 237.95-24.75L237.95-24.75Q237.7-24.75 237.38-25.03 237.05-25.3 235.88-25.63 234.7-25.95 233.85-25.95L233.85-25.95Q230.95-25.95 229.18-23.9 227.4-21.85 227.4-17.63 227.4-13.4 229.23-11.35 231.05-9.3 233.85-9.3L233.85-9.3Q235-9.3 236.43-9.63 237.85-9.95 238.45-10.55L238.45-10.55Q238.55-10.65 238.85-10.65 239.15-10.65 239.98-9.53 240.8-8.4 241.5-6.58 242.2-4.75 242.2-3.75L242.2-3.75Q242.2-1.8 239.2-0.65 236.2 0.5 232.1 0.5L232.1 0.5Q225.5 0.5 221.25-4.15 217-8.8 217-17.28 217-25.75 221.38-30.6 225.75-35.45 232.3-35.45L232.3-35.45ZM294.09-18.15L294.09-18.15Q292.69-20.65 292.69-22.23 292.69-23.8 293.54-24.25L293.54-24.25Q296.39-25.5 301.36-25.5 306.34-25.5 308.39-23.18 310.44-20.85 310.44-16.3L310.44-16.3 310.44-8.4 312.14-8.4Q312.99-8.4 313.46-7.4 313.94-6.4 313.94-4.65 313.94-2.9 313.06-1.2 312.19 0.5 310.69 0.5L310.69 0.5Q307.99 0.5 306.34-0.95L306.34-0.95Q305.59-1.55 305.19-2.4L305.19-2.4Q302.89 0.5 298.04 0.5L298.04 0.5Q294.39 0.5 291.89-2.1 289.39-4.7 289.39-8.25L289.39-8.25Q289.39-16.4 299.14-16.4L299.14-16.4 301.89-16.4 301.89-16.9Q301.89-18.2 301.46-18.57 301.04-18.95 299.49-18.95L299.49-18.95Q297.59-18.95 294.09-18.15ZM298.09-8.95L298.09-8.95Q298.09-7.85 298.69-7.28 299.29-6.7 300.21-6.7 301.14-6.7 301.89-7.45L301.89-7.45 301.89-11.3 300.49-11.3Q298.09-11.3 298.09-8.95ZM372.87-14L372.87-0.05Q372.87 0.3 368.32 0.3L368.32 0.3Q363.77 0.2 363.77-0.1L363.77-0.1 363.77-16.7 362.42-16.7Q361.62-16.7 361.15-17.68 360.67-18.65 360.67-20.1L360.67-20.1Q360.67-25.5 363.87-25.5L363.87-25.5Q366.12-25.5 367.62-24.13 369.12-22.75 369.12-21L369.12-21Q370.17-23.05 371.95-24.28 373.72-25.5 375.57-25.5L375.57-25.5Q378.47-25.5 379.07-24L379.07-24Q379.22-23.6 379.22-22.83 379.22-22.05 378.75-20.05 378.27-18.05 377.77-17.15 377.27-16.25 377.17-16.25 377.07-16.25 376.25-16.63 375.42-17 374.77-17L374.77-17Q372.87-17 372.87-14L372.87-14ZM445.76-1.35L445.76-1.35Q442.61 0.5 437.66 0.5 432.71 0.5 429.31-2.88 425.91-6.25 425.91-12.23 425.91-18.2 429.18-21.85 432.46-25.5 437.46-25.5 442.46-25.5 445.18-22.95 447.91-20.4 447.91-16.75L447.91-16.75Q447.91-8.65 438.61-8.65L438.61-8.65 435.16-8.65Q435.16-7.15 435.98-6.58 436.81-6 438.41-6L438.41-6Q441.91-6 445.06-7.6L445.06-7.6Q445.11-7.65 445.51-6.9L445.51-6.9Q446.71-4.75 446.71-3.28 446.71-1.8 445.76-1.35ZM439.51-15.8L439.51-15.8Q439.51-17.9 437.46-17.9L437.46-17.9Q436.51-17.9 435.83-17.32 435.16-16.75 435.16-15.65L435.16-15.65 435.16-14.1 437.86-14.1Q439.51-14.1 439.51-15.8ZM552.13-35L569.78-35Q570.63-35 570.63-30.58 570.63-26.15 569.78-26.15L569.78-26.15 560.63-26.15 560.63-20.45 566.73-20.45Q567.58-20.45 567.58-16.57 567.58-12.7 566.78-12.7L566.78-12.7 560.63-12.7 560.63-0.65Q560.63 0.05 558.75 0.28 556.88 0.5 555.63 0.5L555.63 0.5 553.28 0.4Q550.83 0.1 550.83-0.6L550.83-0.6 550.83-33.7Q550.83-34.5 551.15-34.75 551.48-35 552.13-35L552.13-35ZM619.99-2.95Q616.86-6.4 616.86-12.5 616.86-18.6 619.99-22.05 623.11-25.5 628.41-25.5 633.71-25.5 636.81-22.05 639.91-18.6 639.91-12.5 639.91-6.4 636.81-2.95 633.71 0.5 628.41 0.5 623.11 0.5 619.99-2.95ZM628.44-17.15Q625.61-17.15 625.61-12.55 625.61-7.95 628.44-7.95 631.26-7.95 631.26-12.55 631.26-17.15 628.44-17.15ZM699.55-14L699.55-0.05Q699.55 0.3 695 0.3L695 0.3Q690.45 0.2 690.45-0.1L690.45-0.1 690.45-16.7 689.1-16.7Q688.3-16.7 687.82-17.68 687.35-18.65 687.35-20.1L687.35-20.1Q687.35-25.5 690.55-25.5L690.55-25.5Q692.8-25.5 694.3-24.13 695.8-22.75 695.8-21L695.8-21Q696.85-23.05 698.62-24.28 700.4-25.5 702.25-25.5L702.25-25.5Q705.15-25.5 705.75-24L705.75-24Q705.9-23.6 705.9-22.83 705.9-22.05 705.42-20.05 704.95-18.05 704.45-17.15 703.95-16.25 703.85-16.25 703.75-16.25 702.92-16.63 702.1-17 701.45-17L701.45-17Q699.55-17 699.55-14L699.55-14ZM821.52-23.15L825.72-33.35Q826.37-35.1 832.12-35.1L832.12-35.1Q833.57-35.1 835.54-34.9 837.52-34.7 837.37-34.4L837.37-34.4 826.97-13.5 826.97-1.3Q826.97-0.45 824.22-0.1L824.22-0.1Q822.82 0.1 821.47 0.1 820.12 0.1 818.77-0.05L818.77-0.05Q816.02-0.4 816.02-1.3L816.02-1.3 816.02-13.2 805.27-34.3Q805.07-34.6 807.32-34.88 809.57-35.15 811.12-35.15L811.12-35.15Q817.27-35.15 817.87-33.35L817.87-33.35 821.52-23.15ZM884.13-2.95Q881-6.4 881-12.5 881-18.6 884.13-22.05 887.25-25.5 892.55-25.5 897.85-25.5 900.95-22.05 904.05-18.6 904.05-12.5 904.05-6.4 900.95-2.95 897.85 0.5 892.55 0.5 887.25 0.5 884.13-2.95ZM892.58-17.15Q889.75-17.15 889.75-12.55 889.75-7.95 892.58-7.95 895.4-7.95 895.4-12.55 895.4-17.15 892.58-17.15ZM952.49-9.95L952.49-24.7Q952.49-25.25 956.79-25.25 961.09-25.25 961.09-24.7L961.09-24.7 961.09-10.1Q961.09-7.6 962.69-7.6L962.69-7.6Q963.89-7.6 965.39-8.65L965.39-8.65 965.39-24.7Q965.39-25.2 969.64-25.2 973.89-25.2 973.89-24.7L973.89-24.7 973.89-8.3 975.19-8.3Q976.89-8.3 976.89-5.05L976.89-5.05Q976.89-3.4 976.19-1.7L976.19-1.7Q975.19 0.5 973.49 0.5L973.49 0.5Q970.14 0.5 968.54-2.25L968.54-2.25 968.49-2.2Q965.44 0.5 961.94 0.5L961.94 0.5Q957.09 0.5 954.79-1.93 952.49-4.35 952.49-9.95L952.49-9.95Z" opacity="1" transform="matrix(1,0,0,1,0,0)" fill="#1c4b82" class="slogan-text-1" data-fill-palette-color="secondary" id="text-1"></path></svg></g></svg></g></svg></g></svg></g></svg></g></svg></g></svg></g><g mask="url(#a131a4d0-3c9d-48c1-be7b-50aaec29f153)"><g transform="matrix(2.4563477354918204, 0, 0, 2.4563477354918204, 94.41776624625587, 0.9999999999999858)"><svg xmlns="http://www.w3.org/2000/svg" xmlns:xlink="http://www.w3.org/1999/xlink" version="1.1" x="0" y="0" viewBox="7.9289999999999985 0 84.143 99.82300000000001" enable-background="new 0 0 100 100" xml:space="preserve" height="99.82300000000001" width="84.143" class="icon-none" data-fill-palette-color="accent" id="none"><path fill="#1c4b82" d="M26.395 99.385c-10.182 0-18.466-8.284-18.466-18.467V18.465C7.929 8.284 16.212 0 26.395 0c10.183 0 18.467 8.284 18.467 18.465v62.453C44.861 91.101 36.577 99.385 26.395 99.385zM13.068 49.457v31.461c0 7.349 5.979 13.327 13.327 13.327 7.349 0 13.327-5.979 13.327-13.327V49.457H13.068z" data-fill-palette-color="accent"></path><path fill="#1c4b82" d="M73.605 0.438c10.183 0 18.467 8.284 18.467 18.467l-0.001 62.453c0.001 10.181-8.283 18.465-18.466 18.465-10.182 0-18.465-8.284-18.465-18.465V18.904C55.141 8.722 63.424 0.438 73.605 0.438zM86.933 50.366V18.904c0-7.349-5.979-13.327-13.327-13.328-7.349 0-13.327 5.979-13.327 13.327v31.46L86.933 50.366z" data-fill-palette-color="accent"></path></svg></g></g></svg></g><defs></defs></svg><rect width="395.52" height="247.2" fill="none" stroke="none" visibility="hidden"></rect></g></svg></g></svg>